<?xml version="1.0" standalone="no"?>
<!DOCTYPE svg PUBLIC "-//W3C//DTD SVG 20010904//EN"
 "http://www.w3.org/TR/2001/REC-SVG-20010904/DTD/svg10.dtd">
<svg version="1.0" xmlns="http://www.w3.org/2000/svg"
 width="600.000000pt" height="601.000000pt" viewBox="0 0 600.000000 601.000000"
 preserveAspectRatio="xMidYMid meet">
<metadata>
Created by potrace 1.16, written by Peter Selinger 2001-2019
</metadata>
<g transform="translate(0.000000,601.000000) scale(0.100000,-0.100000)"
fill="#000000" stroke="none">
<path d="M3283 5120 c-104 -9 -260 -40 -355 -71 -132 -43 -391 -198 -419 -250
-8 -17 3 -12 48 20 66 46 69 47 77 26 3 -10 -11 -27 -42 -50 -61 -46 -222
-257 -222 -292 0 -21 22 -15 52 14 37 35 36 12 -1 -35 -16 -20 -35 -57 -41
-82 -6 -25 -20 -69 -31 -98 -20 -55 -18 -75 6 -66 11 5 13 -15 10 -110 -1 -66
2 -119 7 -122 5 -3 13 -16 17 -28 7 -18 13 -12 39 46 65 143 67 181 11 195
l-31 8 76 100 c59 77 76 107 76 132 0 37 -28 58 -64 50 -26 -7 53 67 166 155
83 64 93 81 84 132 -6 32 -5 34 55 61 92 41 253 93 359 116 67 14 149 22 275
26 154 5 198 2 304 -16 291 -50 597 -198 862 -419 228 -191 388 -395 521 -667
60 -121 53 -90 -11 55 -95 215 -220 398 -385 569 -411 423 -941 644 -1443 601z"/>
<path d="M4190 5023 c0 -5 42 -33 94 -62 519 -293 894 -834 1008 -1451 32
-173 32 -514 -1 -695 -49 -274 -151 -539 -296 -770 -14 -22 -14 -26 -2 -15 29
28 146 232 193 339 211 481 238 998 79 1491 -93 288 -210 487 -409 697 -143
152 -372 325 -546 413 -36 18 -77 39 -92 47 -16 8 -28 10 -28 6z"/>
<path d="M2867 4401 c-78 -85 -101 -148 -102 -276 0 -92 3 -106 31 -166 78
-163 218 -247 398 -237 45 3 95 11 113 19 l32 14 -199 344 c-110 190 -203 348
-208 353 -5 5 -33 -17 -65 -51z"/>
<path d="M1557 4358 c-201 -284 -334 -626 -366 -947 -26 -249 6 -568 77 -786
l20 -60 1 130 c1 81 -5 162 -15 215 -9 47 -18 168 -21 270 -6 212 14 388 68
597 47 182 157 439 250 584 51 78 42 76 -14 -3z"/>
<path d="M1480 2273 c0 -24 52 -168 84 -231 36 -71 98 -159 165 -232 l41 -45
-15 40 c-9 21 -22 46 -29 55 -8 8 -26 43 -40 78 -14 35 -41 85 -60 111 -20 26
-60 90 -91 142 -30 51 -55 88 -55 82z"/>
<path d="M3884 1661 c-5 -4 -28 -13 -51 -20 -44 -12 -59 -35 -48 -71 4 -12 1
-28 -7 -37 -12 -15 -9 -16 32 -9 116 18 147 39 134 90 -7 28 -47 59 -60 47z"/>
<path d="M3686 1460 c-22 -11 -52 -20 -67 -20 -29 0 -56 -31 -43 -51 3 -6 -2
-19 -12 -30 -13 -15 -14 -19 -3 -19 8 0 44 -5 81 -10 69 -10 114 -2 130 23 16
26 8 86 -14 107 -26 24 -23 24 -72 0z"/>
<path d="M3470 1310 c-14 -4 -50 -8 -80 -9 -59 -1 -100 -21 -100 -48 0 -9 -7
-21 -17 -28 -14 -10 -6 -15 49 -30 89 -24 213 -18 234 10 18 24 10 61 -18 93
-23 23 -29 25 -68 12z"/>
<path d="M3037 1204 c-11 -13 -27 -24 -34 -24 -7 0 -13 -4 -13 -10 0 -30 234
-56 246 -27 9 24 -15 70 -32 63 -9 -3 -35 -1 -58 6 -66 19 -87 17 -109 -8z"/>
</g>
</svg>
